<svg width="38" height="38" viewBox="0 0 38 38" fill="none" xmlns="http://www.w3.org/2000/svg">
    <path d="M12.8917 0.724926C10.0511 0.407446 7.11557 0.407446 4.27496 0.724926C2.4475 0.929172 0.969784 2.36824 0.754279 4.21082C0.414508 7.11585 0.414508 10.0506 0.754279 12.9556C0.969784 14.7982 2.4475 16.2373 4.27496 16.4415C7.11557 16.759 10.0511 16.759 12.8917 16.4415C14.7191 16.2373 16.1969 14.7982 16.4124 12.9556C16.7521 10.0506 16.7521 7.11585 16.4124 4.21082C16.1969 2.36824 14.7191 0.929172 12.8917 0.724926Z" fill="white" />
    <path d="M12.8917 21.5583C10.0511 21.2408 7.11557 21.2408 4.27496 21.5583C2.4475 21.7625 0.969784 23.2016 0.754279 25.0441C0.414508 27.9492 0.414508 30.8839 0.754279 33.789C0.969784 35.6315 2.4475 37.0706 4.27496 37.2749C7.11557 37.5923 10.0511 37.5923 12.8917 37.2749C14.7191 37.0706 16.1969 35.6315 16.4124 33.789C16.7521 30.8839 16.7521 27.9492 16.4124 25.0441C16.1969 23.2016 14.7191 21.7625 12.8917 21.5583Z" fill="white" />
    <path d="M33.725 0.724926C30.8844 0.407446 27.9489 0.407446 25.1083 0.724926C23.2809 0.929172 21.8032 2.36824 21.5876 4.21082C21.2479 7.11585 21.2479 10.0506 21.5876 12.9556C21.8032 14.7982 23.2809 16.2373 25.1083 16.4415C27.9489 16.759 30.8844 16.759 33.725 16.4415C35.5525 16.2373 37.0302 14.7982 37.2457 12.9556C37.5855 10.0506 37.5855 7.11585 37.2457 4.21082C37.0302 2.36824 35.5525 0.929172 33.725 0.724926Z" fill="white" />
    <path d="M33.725 21.5583C30.8844 21.2408 27.9489 21.2408 25.1083 21.5583C23.2809 21.7625 21.8032 23.2016 21.5876 25.0441C21.2479 27.9492 21.2479 30.8839 21.5876 33.789C21.8032 35.6315 23.2809 37.0706 25.1083 37.2749C27.9489 37.5923 30.8844 37.5923 33.725 37.2749C35.5525 37.0706 37.0302 35.6315 37.2457 33.789C37.5855 30.8839 37.5855 27.9492 37.2457 25.0441C37.0302 23.2016 35.5525 21.7625 33.725 21.5583Z" fill="white" />
</svg>
    