<svg width="40" height="40" viewBox="0 0 40 40" fill="none" xmlns="http://www.w3.org/2000/svg">
    <path fill-rule="evenodd" clip-rule="evenodd" d="M20.4797 0.214181C9.55227 -0.0507137 0.479107 8.59297 0.214212 19.5204C-0.0506831 30.4478 8.59301 39.521 19.5204 39.7859C20.2239 39.8029 20.8601 39.6056 21.3917 39.2035C21.9074 38.8135 22.2648 38.2768 22.5146 37.7027C23.0045 36.577 23.1696 35.1007 23.1779 33.5784C23.2079 28.0748 28.0359 23.2952 33.4846 23.5016C34.9835 23.5584 36.4295 23.4781 37.5439 23.1106C38.1078 22.9246 38.6565 22.6428 39.0767 22.2033C39.5181 21.7417 39.7696 21.1544 39.7859 20.4797C40.0508 9.55224 31.4071 0.479076 20.4797 0.214181ZM13.521 27.089C12.3789 27.2287 11.5663 28.2677 11.706 29.4098C11.8456 30.5519 12.8847 31.3645 14.0268 31.2249C15.1689 31.0852 15.9815 30.0461 15.8418 28.904C15.7021 27.762 14.6631 26.9493 13.521 27.089ZM6.55853 21.6439C6.41886 20.5019 7.23147 19.4628 8.37356 19.3231C9.51564 19.1834 10.5547 19.9961 10.6944 21.1381C10.8341 22.2802 10.0214 23.3193 8.87936 23.459C7.73727 23.5986 6.6982 22.786 6.55853 21.6439ZM11.4978 10.5456C10.3557 10.6853 9.54309 11.7244 9.68277 12.8664C9.82244 14.0085 10.8615 14.8211 12.0036 14.6815C13.1457 14.5418 13.9583 13.5027 13.8186 12.3606C13.6789 11.2186 12.6399 10.4059 11.4978 10.5456ZM27.7027 14.3357C27.563 13.1936 28.3756 12.1545 29.5177 12.0149C30.6598 11.8752 31.6989 12.6878 31.8385 13.8299C31.9782 14.972 31.1656 16.011 30.0235 16.1507C28.8814 16.2904 27.8424 15.4778 27.7027 14.3357ZM19.9846 17.6638C18.8425 17.8035 18.0299 18.8426 18.1696 19.9847C18.3092 21.1268 19.3483 21.9394 20.4904 21.7997C21.6325 21.66 22.4451 20.621 22.3054 19.4789C22.1658 18.3368 21.1267 17.5242 19.9846 17.6638ZM18.7356 9.66045C18.5959 8.51836 19.4085 7.47929 20.5506 7.33962C21.6927 7.19995 22.7317 8.01257 22.8714 9.15465C23.0111 10.2967 22.1985 11.3358 21.0564 11.4755C19.9143 11.6151 18.8752 10.8025 18.7356 9.66045Z" fill="white" />
</svg>
    