<svg width="32" height="38" viewBox="0 0 32 38" fill="none" xmlns="http://www.w3.org/2000/svg">
    <path d="M19.7417 1.61684C17.695 -0.496951 14.3049 -0.496954 12.2582 1.61683L2.26136 11.9413C1.68722 12.5342 1.30142 13.2838 1.15255 14.0957C-0.0615284 20.7164 -0.151147 27.4945 0.887465 34.145L1.25518 36.4996C1.37132 37.2433 2.01187 37.7916 2.76459 37.7916H9.74993C10.3252 37.7916 10.7916 37.3252 10.7916 36.7499V22.1666H21.2083V36.7499C21.2083 37.3252 21.6746 37.7916 22.2499 37.7916H29.2352C29.9879 37.7916 30.6284 37.2433 30.7446 36.4996L31.1123 34.145C32.1509 27.4945 32.0613 20.7164 30.8472 14.0956C30.6983 13.2838 30.3125 12.5342 29.7384 11.9413L19.7417 1.61684Z" fill="white" />
</svg>
    